# xmcd
#
# Track frame offsets:
# 150
# 12970
# 27942
# 44127
# 64770
# 80145
# 94402
# 108572
# 133470
# 148547
# 161860
#
# Disc length: 2396 seconds
#
#
# Revision: 1
# Processed by: cddbd v1.4PL0 Copyright (c) Steve Scherf et al.
# Submitted via: FreeRIP 2.52 
#
DISCID=a7095a0b
DTITLE=David and the Citizens - Until the Sadness is Gone
DYEAR=2003
DGENRE=Rock
TTITLE0=The End
TTITLE1=Graycoated Morning
TTITLE2=Until the Sadness is Gone
TTITLE3=Never a Bottom
TTITLE4=New Direction
TTITLE5=Long Days
TTITLE6=Sore Feet and Blisters
TTITLE7=On All American Winds
TTITLE8=Let's Not Fall Apart
TTITLE9=Silverjacketgirl
TTITLE10=As You Fall (I Watch with Love)
EXTD=
EXTT0=
EXTT1=
EXTT2=
EXTT3=
EXTT4=
EXTT5=
EXTT6=
EXTT7=
EXTT8=
EXTT9=
EXTT10=
PLAYORDER=
